<?xml version="1.0" encoding="UTF-8" standalone="no"?>
<!-- Created with Inkscape (http://www.inkscape.org/) -->

<svg
   xmlns:dc="http://purl.org/dc/elements/1.1/"
   xmlns:cc="http://creativecommons.org/ns#"
   xmlns:rdf="http://www.w3.org/1999/02/22-rdf-syntax-ns#"
   xmlns:svg="http://www.w3.org/2000/svg"
   xmlns="http://www.w3.org/2000/svg"
   version="1.1"
   width="320"
   height="320"
   id="svg2">
  <defs
     id="defs4" />
  <metadata
     id="metadata7">
    <rdf:RDF>
      <cc:Work
         rdf:about="">
        <dc:format>image/svg+xml</dc:format>
        <dc:type
           rdf:resource="http://purl.org/dc/dcmitype/StillImage" />
        <dc:title></dc:title>
      </cc:Work>
    </rdf:RDF>
  </metadata>
  <g
     transform="translate(-166.9787,-302.08511)"
     id="layer1">
    <path
       d="m 197.78103,472.72343 c -13.38874,13.38876 -14.49191,34.02744 -2.41293,46.10641 12.07898,12.07898 32.71767,10.97583 46.10642,-2.41292 l 17.4774,-16.82525 c 15.33162,-15.33163 33.70951,-22.2624 43.17177,-16.82525 1.77993,1.07032 2.92608,2.56963 4.17369,4.1737 5.43714,9.46225 -1.4936,27.84014 -16.82525,43.17178 l -16.82525,17.47739 c -13.38874,13.38875 -14.4919,34.02744 -2.41291,46.10641 12.07897,12.07898 32.71765,10.97582 46.10641,-2.41293 13.38874,-13.38874 14.42667,-33.96221 2.3477,-46.04119 -5.4615,-5.4615 -12.6658,-8.2435 -20.15117,-8.41262 19.8057,-20.21097 31.77633,-42.79254 32.6723,-59.14925 l 114.58128,-51.45398 c 28.78595,-17.93155 19.995,-35.48251 19.69467,-37.43292 L 347.31711,441.7467 400.271,323.57865 c -1.95041,-0.30034 -19.50138,-9.09127 -37.43293,19.69467 l -51.45398,114.58129 c -16.35671,0.89596 -38.93827,12.86659 -59.14925,32.67228 -0.16912,-7.48537 -2.95111,-14.68967 -8.41262,-20.15117 -12.07897,-12.07897 -32.65243,-11.04103 -46.04119,2.34771 z m 5.93448,6.45621 c 9.45943,-9.45944 24.58786,-9.58438 32.73752,-1.43472 8.14966,8.14967 10.43764,22.82157 0.97821,32.28101 -9.45944,9.45944 -27.06599,10.10608 -35.21565,1.95643 -8.14965,-8.14966 -7.95951,-23.3433 1.49992,-32.80272 z m 75.32236,72.45293 c 9.45944,-9.45944 24.13134,-7.17146 32.28101,0.97821 8.14967,8.14966 8.02472,23.27808 -1.43471,32.73751 -9.45943,9.45943 -24.65306,9.64958 -32.80272,1.49992 -8.14966,-8.14967 -7.50302,-25.75621 1.95642,-35.21564 z"
       id="path3009"
       style="color:#000000;fill:#000000;fill-opacity:1;fill-rule:nonzero;stroke:none;stroke-width:6;marker:none;visibility:visible;display:inline;overflow:visible;enable-background:accumulate" />
  </g>
</svg>
